<mxfile host="app.diagrams.net" modified="2024-07-21T14:30:39.133Z" agent="Mozilla/5.0 (Macintosh; Intel Mac OS X 10_15_7) AppleWebKit/537.36 (KHTML, like Gecko) Chrome/126.0.0.0 Safari/537.36" etag="iy6UHUBWYo836ZFAJIy_" version="24.7.2" type="github">
  <diagram name="Page-1" id="74e2e168-ea6b-b213-b513-2b3c1d86103e">
    <mxGraphModel dx="1026" dy="685" grid="1" gridSize="10" guides="1" tooltips="1" connect="1" arrows="1" fold="1" page="1" pageScale="1" pageWidth="1100" pageHeight="850" background="none" math="0" shadow="0">
      <root>
        <mxCell id="0" />
        <mxCell id="1" parent="0" />
        <mxCell id="aDEa6jCN7bbH8Jsr5Ft4-1" value="&lt;font style=&quot;font-size: 15px;&quot;&gt;&lt;b&gt;Data Service Network&lt;/b&gt;&lt;/font&gt;" style="rounded=0;whiteSpace=wrap;html=1;" vertex="1" parent="1">
          <mxGeometry x="140" y="580" width="720" height="70" as="geometry" />
        </mxCell>
        <mxCell id="aDEa6jCN7bbH8Jsr5Ft4-3" value="IPNS" style="rounded=1;whiteSpace=wrap;html=1;" vertex="1" parent="1">
          <mxGeometry x="170" y="587.5" width="110" height="55" as="geometry" />
        </mxCell>
        <mxCell id="aDEa6jCN7bbH8Jsr5Ft4-4" value="GraphQL" style="rounded=1;whiteSpace=wrap;html=1;" vertex="1" parent="1">
          <mxGeometry x="300" y="587.5" width="110" height="55" as="geometry" />
        </mxCell>
        <mxCell id="aDEa6jCN7bbH8Jsr5Ft4-5" value="&lt;font style=&quot;font-size: 15px;&quot;&gt;&lt;b&gt;DA Layer&lt;/b&gt;&lt;/font&gt;" style="rounded=0;whiteSpace=wrap;html=1;" vertex="1" parent="1">
          <mxGeometry x="140" y="660" width="720" height="70" as="geometry" />
        </mxCell>
        <mxCell id="aDEa6jCN7bbH8Jsr5Ft4-8" value="&lt;span style=&quot;text-align: left;&quot;&gt;Attestation Service&lt;/span&gt;" style="rounded=1;whiteSpace=wrap;html=1;" vertex="1" parent="1">
          <mxGeometry x="170" y="667.5" width="110" height="55" as="geometry" />
        </mxCell>
        <mxCell id="aDEa6jCN7bbH8Jsr5Ft4-9" value="&lt;span style=&quot;font-family: Arial, sans-serif; font-size: 14px; text-align: left; background-color: rgb(255, 255, 255);&quot;&gt;Erasure Coding&lt;/span&gt;" style="rounded=1;whiteSpace=wrap;html=1;" vertex="1" parent="1">
          <mxGeometry x="300" y="667.5" width="110" height="55" as="geometry" />
        </mxCell>
        <mxCell id="aDEa6jCN7bbH8Jsr5Ft4-10" value="Indexing" style="rounded=1;whiteSpace=wrap;html=1;" vertex="1" parent="1">
          <mxGeometry x="590" y="587.5" width="110" height="55" as="geometry" />
        </mxCell>
        <mxCell id="aDEa6jCN7bbH8Jsr5Ft4-11" value="&lt;div style=&quot;text-align: left;&quot;&gt;&lt;font face=&quot;Arial, sans-serif&quot;&gt;&lt;span style=&quot;font-size: 14px; background-color: rgb(255, 255, 255);&quot;&gt;Standardization&lt;/span&gt;&lt;/font&gt;&lt;/div&gt;" style="rounded=1;whiteSpace=wrap;html=1;" vertex="1" parent="1">
          <mxGeometry x="730" y="587.5" width="110" height="55" as="geometry" />
        </mxCell>
        <mxCell id="aDEa6jCN7bbH8Jsr5Ft4-12" value="&lt;span style=&quot;font-family: Arial, sans-serif; font-size: 14px; text-align: left; background-color: rgb(255, 255, 255);&quot;&gt;ABAC/RBAC&lt;/span&gt;" style="rounded=1;whiteSpace=wrap;html=1;" vertex="1" parent="1">
          <mxGeometry x="590" y="667.5" width="110" height="55" as="geometry" />
        </mxCell>
        <mxCell id="aDEa6jCN7bbH8Jsr5Ft4-13" value="&lt;font style=&quot;font-size: 13px;&quot;&gt;&lt;span style=&quot;font-family: Arial, sans-serif; text-align: left; background-color: rgb(255, 255, 255);&quot; class=&quot;t55VCb&quot;&gt;KZG&lt;/span&gt;&lt;span style=&quot;font-family: Arial, sans-serif; text-align: left; background-color: rgb(255, 255, 255);&quot;&gt;&amp;nbsp;Commitment&lt;/span&gt;&lt;/font&gt;" style="rounded=1;whiteSpace=wrap;html=1;" vertex="1" parent="1">
          <mxGeometry x="730" y="667.5" width="110" height="55" as="geometry" />
        </mxCell>
        <mxCell id="aDEa6jCN7bbH8Jsr5Ft4-14" value="Layer 1" style="rounded=0;whiteSpace=wrap;html=1;dashed=1;dashPattern=1 1;" vertex="1" parent="1">
          <mxGeometry x="140" y="730" width="720" height="20" as="geometry" />
        </mxCell>
      </root>
    </mxGraphModel>
  </diagram>
</mxfile>
